# xmcd CD database file
#
# Track frame offsets:
#	150
#	12549
#	24989
#	33346
#	43381
#	55079
#	63146
#	72528
#	86317
#	98124
#	110667
#	123014
#	136526
#	148492
#	161694
#	180464
#	194492
#	211380
#	225483
#	236108
#
# Disc length: 3379 seconds
#
# Revision: 2
# Processed by: cddbd v1.4PL0 Copyright (c) Steve Scherf et al.
# Submitted via: CDex 1.50
#
DISCID=170d3114
DTITLE=Johnny Cash - The Man In Black - Best Of Cd1
DYEAR=2001
DGENRE=Country
TTITLE0=Folsom Prison Blues(Live)
TTITLE1=I Walk The Line
TTITLE2=Guess Things Happen That Way
TTITLE3=Get Rhytm
TTITLE4=I Still Miss Someone
TTITLE5=Five Feet High And Rising
TTITLE6=I Got Stripes
TTITLE7=Don't Take Your Guns To Town
TTITLE8=Ring Of Fire
TTITLE9=Jackson(W/June Carter)
TTITLE10=Understand Your Man
TTITLE11=Tennesee Flat-Top Box
TTITLE12=When It's Springtime In Alaska
TTITLE13=San Quentin(Live)
TTITLE14=The Ballad Of Ira Hayes
TTITLE15=The Long Black Veil
TTITLE16=A Boy Named Sue(Live)
TTITLE17=Orange Blossom Special(W The Carter Family,C.McCoy&B.Randolph
TTITLE18=Daddy Sang Bass
TTITLE19=Where Were You(When They Crucified My Lord)
EXTD=YEAR: 2001
EXTT0=
EXTT1=
EXTT2=
EXTT3=
EXTT4=
EXTT5=
EXTT6=
EXTT7=
EXTT8=
EXTT9=
EXTT10=
EXTT11=
EXTT12=
EXTT13=
EXTT14=
EXTT15=
EXTT16=
EXTT17=
EXTT18=
EXTT19=
PLAYORDER=
